<svg xmlns="http://www.w3.org/2000/svg" xmlns:xlink="http://www.w3.org/1999/xlink" xmlns:lucid="lucid" width="1301.08" height="1866.78"><g transform="translate(0 0)" lucid:page-tab-id="0_0"><path d="M1082.5 693c16.57 0 30 13.43 30 30v240c0 16.57-13.43 30-30 30H232.92c-16.57 0-30-13.43-30-30V723c0-16.57 13.43-30 30-30zM1090 335.54c16.57 0 30 13.43 30 30v208.44c0 16.56-13.43 30-30 30H210c-16.57 0-30-13.44-30-30V365.54c0-16.57 13.43-30 30-30zM1141.45 1087c16.56 0 30 13.43 30 30v240c0 16.57-13.44 30-30 30H152.3c-16.58 0-30-13.43-30-30v-240c0-16.57 13.42-30 30-30z" stroke="#5e5e5e" stroke-width="3" fill="#c1e4f7"/><path d="M650 250.5v79" stroke="#5e5e5e" stroke-width="5" fill="none"/><path d="M652.5 250.58h-5V248h5z" stroke="#5e5e5e" stroke-width=".05" fill="#5e5e5e"/><path d="M639.82 311.9L650 329.14l10.18-17.22" stroke="#5e5e5e" stroke-width="5" fill="none"/><path d="M100 1487a6 6 0 0 1 6-6h1088a6 6 0 0 1 6 6v320.52a6 6 0 0 1-6 6H106a6 6 0 0 1-6-6z" stroke="#5e5e5e" stroke-width="3" fill="#c3f7c8"/><use xlink:href="#a" transform="matrix(1,0,0,1,112,1493.0013380838006) translate(0 31.513543500851576)"/><use xlink:href="#b" transform="matrix(1,0,0,1,112,1493.0013380838006) translate(0 75.08490927920613)"/><use xlink:href="#c" transform="matrix(1,0,0,1,112,1493.0013380838006) translate(0 113.8465668605352)"/><use xlink:href="#d" transform="matrix(1,0,0,1,112,1493.0013380838006) translate(41.169662709397805 113.8465668605352)"/><use xlink:href="#e" transform="matrix(1,0,0,1,112,1493.0013380838006) translate(123.43583729326309 113.8465668605352)"/><use xlink:href="#f" transform="matrix(1,0,0,1,112,1493.0013380838006) translate(244.09929289643537 113.8465668605352)"/><use xlink:href="#g" transform="matrix(1,0,0,1,112,1493.0013380838006) translate(366.5866193480248 113.8465668605352)"/><use xlink:href="#h" transform="matrix(1,0,0,1,112,1493.0013380838006) translate(611.9452450613966 113.8465668605352)"/><use xlink:href="#i" transform="matrix(1,0,0,1,112,1493.0013380838006) translate(780.6053019387026 113.8465668605352)"/><use xlink:href="#j" transform="matrix(1,0,0,1,112,1493.0013380838006) translate(836.0893730116012 113.8465668605352)"/><use xlink:href="#k" transform="matrix(1,0,0,1,112,1493.0013380838006) translate(924.3071261534591 113.8465668605352)"/><use xlink:href="#l" transform="matrix(1,0,0,1,112,1493.0013380838006) translate(41.169662709397805 150.82298590491885)"/><use xlink:href="#m" transform="matrix(1,0,0,1,112,1493.0013380838006) translate(0 187.7994049493025)"/><use xlink:href="#n" transform="matrix(1,0,0,1,112,1493.0013380838006) translate(41.169662709397805 187.7994049493025)"/><use xlink:href="#o" transform="matrix(1,0,0,1,112,1493.0013380838006) translate(131.21128669967274 187.7994049493025)"/><use xlink:href="#p" transform="matrix(1,0,0,1,112,1493.0013380838006) translate(240.35555799705293 187.7994049493025)"/><use xlink:href="#i" transform="matrix(1,0,0,1,112,1493.0013380838006) translate(299.77535037443056 187.7994049493025)"/><use xlink:href="#j" transform="matrix(1,0,0,1,112,1493.0013380838006) translate(355.2594214473292 187.7994049493025)"/><use xlink:href="#q" transform="matrix(1,0,0,1,112,1493.0013380838006) translate(443.4771745891871 187.7994049493025)"/><use xlink:href="#r" transform="matrix(1,0,0,1,112,1493.0013380838006) translate(572.0120728013173 187.7994049493025)"/><use xlink:href="#s" transform="matrix(1,0,0,1,112,1493.0013380838006) translate(683.1722013522111 187.7994049493025)"/><use xlink:href="#t" transform="matrix(1,0,0,1,112,1493.0013380838006) translate(765.6303623411729 187.7994049493025)"/><use xlink:href="#u" transform="matrix(1,0,0,1,112,1493.0013380838006) translate(878.5183685379355 187.7994049493025)"/><use xlink:href="#v" transform="matrix(1,0,0,1,112,1493.0013380838006) translate(41.169662709397805 224.77582399368615)"/><use xlink:href="#w" transform="matrix(1,0,0,1,112,1493.0013380838006) translate(186.9833373802162 224.77582399368615)"/><use xlink:href="#x" transform="matrix(1,0,0,1,112,1493.0013380838006) translate(0 260.33005637140315)"/><use xlink:href="#y" transform="matrix(1,0,0,1,112,1493.0013380838006) translate(41.169662709397805 260.33005637140315)"/><use xlink:href="#z" transform="matrix(1,0,0,1,112,1493.0013380838006) translate(188.1325205111905 260.33005637140315)"/><use xlink:href="#A" transform="matrix(1,0,0,1,112,1493.0013380838006) translate(369.7873540394287 260.33005637140315)"/><use xlink:href="#B" transform="matrix(1,0,0,1,112,1493.0013380838006) translate(467.76259257395714 260.33005637140315)"/><use xlink:href="#C" transform="matrix(1,0,0,1,112,1493.0013380838006) translate(553.1722336012691 260.33005637140315)"/><use xlink:href="#D" transform="matrix(1,0,0,1,112,1493.0013380838006) translate(0 295.4043091125284)"/><use xlink:href="#E" transform="matrix(1,0,0,1,112,1493.0013380838006) translate(41.169662709397805 295.4043091125284)"/><use xlink:href="#F" transform="matrix(1,0,0,1,112,1493.0013380838006) translate(204.70454041201222 295.4043091125284)"/><use xlink:href="#G" transform="matrix(1,0,0,1,112,1493.0013380838006) translate(308.23413726494795 295.4043091125284)"/><use xlink:href="#H" transform="matrix(1,0,0,1,112,1493.0013380838006) translate(360.86395870821696 295.4043091125284)"/><use xlink:href="#I" transform="matrix(1,0,0,1,112,1493.0013380838006) translate(406.39148590827665 295.4043091125284)"/><path d="M252.5 66a6 6 0 0 1 6-6h783a6 6 0 0 1 6 6v174.5a6 6 0 0 1-6 6h-783a6 6 0 0 1-6-6z" stroke="#5e5e5e" stroke-width="3" fill="#c3f7c8"/><use xlink:href="#J" transform="matrix(1,0,0,1,264.5,72) translate(0 31.513543500851576)"/><use xlink:href="#b" transform="matrix(1,0,0,1,264.5,72) translate(0 75.08490927920613)"/><use xlink:href="#c" transform="matrix(1,0,0,1,264.5,72) translate(0 113.8465668605352)"/><use xlink:href="#K" transform="matrix(1,0,0,1,264.5,72) translate(41.169662709397805 113.8465668605352)"/><use xlink:href="#L" transform="matrix(1,0,0,1,264.5,72) translate(181.12775202477187 113.8465668605352)"/><use xlink:href="#M" transform="matrix(1,0,0,1,264.5,72) translate(288.448152473735 113.8465668605352)"/><use xlink:href="#N" transform="matrix(1,0,0,1,264.5,72) translate(433.9738475369086 113.8465668605352)"/><use xlink:href="#O" transform="matrix(1,0,0,1,264.5,72) translate(503.0889533716612 113.8465668605352)"/><use xlink:href="#P" transform="matrix(1,0,0,1,264.5,72) translate(604.7457548702765 113.8465668605352)"/><use xlink:href="#Q" transform="matrix(1,0,0,1,264.5,72) translate(0 149.4007992382522)"/><use xlink:href="#R" transform="matrix(1,0,0,1,264.5,72) translate(41.169662709397805 149.4007992382522)"/><use xlink:href="#S" transform="matrix(1,0,0,1,264.5,72) translate(126.57930373670979 149.4007992382522)"/><use xlink:href="#T" transform="matrix(1,0,0,1,264.5,72) translate(193.7779338839979 149.4007992382522)"/><use xlink:href="#U" transform="matrix(1,0,0,1,264.5,72) translate(250.1410125576718 149.4007992382522)"/><use xlink:href="#V" transform="matrix(1,0,0,1,264.5,72) translate(290.02312638492407 149.4007992382522)"/><use xlink:href="#W" transform="matrix(1,0,0,1,264.5,72) translate(401.0192376986696 149.4007992382522)"/><a xlink:href="http://final.fasta" target="_blank" transform="matrix(1,0,0,1,264.5,72)"><path class="lucid-link lucid-hotspot lucid-overlay-hotspot" fill-opacity="0" d="M41.17 86.2h9.6v41.47h-9.6z"/></a><path d="M200.42 329.98a6 6 0 0 1 6-6H524a6 6 0 0 1 6 6v88a6 6 0 0 1-6 6H206.42a6 6 0 0 1-6-6z" stroke="#000" stroke-opacity="0" stroke-width="5" fill="#fff" fill-opacity="0"/><use xlink:href="#X" transform="matrix(1,0,0,1,205.42178092084873,328.9746459999999) translate(6.341693032355835 52.50031422297918)"/><use xlink:href="#Y" transform="matrix(1,0,0,1,205.42178092084873,328.9746459999999) translate(115.73607762310218 52.50031422297918)"/><path d="M200.42 449.98a6 6 0 0 1 6-6H454a6 6 0 0 1 6 6v88a6 6 0 0 1-6 6H206.42a6 6 0 0 1-6-6z" stroke="#5e5e5e" stroke-width="3" fill="#fff"/><use xlink:href="#Z" transform="matrix(1,0,0,1,212.42178092084873,455.9746459999999) translate(0 26.83562638936199)"/><use xlink:href="#aa" transform="matrix(1,0,0,1,212.42178092084873,455.9746459999999) translate(105.31658584308636 26.83562638936199)"/><use xlink:href="#ab" transform="matrix(1,0,0,1,212.42178092084873,455.9746459999999) translate(0 59.551570340299705)"/><path d="M520 449.98a6 6 0 0 1 6-6h227.58a6 6 0 0 1 6 6v88a6 6 0 0 1-6 6H526a6 6 0 0 1-6-6z" stroke="#5e5e5e" stroke-width="3" fill="#fff"/><g><use xlink:href="#ac" transform="matrix(1,0,0,1,532.0000000000001,455.9746459999999) translate(0 43.46062638936199)"/><use xlink:href="#ad" transform="matrix(1,0,0,1,532.0000000000001,455.9746459999999) translate(111.77147336250131 43.46062638936199)"/></g><path d="M192.5 722.4a6 6 0 0 1 6-6h386.32a6 6 0 0 1 6 6v51.08a6 6 0 0 1-6 6H198.5a6 6 0 0 1-6-6z" stroke="#000" stroke-opacity="0" stroke-width="5" fill="#fff" fill-opacity="0"/><g><use xlink:href="#ae" transform="matrix(1,0,0,1,197.49999999999994,721.3863029560639) translate(29.58202549657551 33.12531422297918)"/><use xlink:href="#af" transform="matrix(1,0,0,1,197.49999999999994,721.3863029560639) translate(223.47556645675576 33.12531422297918)"/></g><path d="M382.92 877.6" stroke="#f2f3f5" stroke-width="5" fill="none"/><path d="M212.92 822.4a6 6 0 0 1 6-6H466.5a6 6 0 0 1 6 6v88a6 6 0 0 1-6 6H218.92a6 6 0 0 1-6-6z" stroke="#5e5e5e" stroke-width="3" fill="#fff"/><g><use xlink:href="#ag" transform="matrix(1,0,0,1,224.92178092084862,828.3863029560639) translate(0 26.83562638936199)"/><use xlink:href="#ah" transform="matrix(1,0,0,1,224.92178092084862,828.3863029560639) translate(111.94133882353857 26.83562638936199)"/><use xlink:href="#ai" transform="matrix(1,0,0,1,224.92178092084862,828.3863029560639) translate(0 59.551570340299705)"/></g><path d="M552.5 819a6 6 0 0 1 6-6h227.58a6 6 0 0 1 6 6v88a6 6 0 0 1-6 6H558.5a6 6 0 0 1-6-6z" stroke="#5e5e5e" stroke-width="3" fill="#fff"/><g><use xlink:href="#aj" transform="matrix(1,0,0,1,564.5000000000001,824.9995539720665) translate(0 26.83562638936199)"/><use xlink:href="#ak" transform="matrix(1,0,0,1,564.5000000000001,824.9995539720665) translate(0 59.551570340299705)"/></g><path d="M872.5 819a6 6 0 0 1 6-6h188a6 6 0 0 1 6 6v88a6 6 0 0 1-6 6h-188a6 6 0 0 1-6-6z" stroke="#5e5e5e" stroke-width="3" fill="#fff"/><g><use xlink:href="#al" transform="matrix(1,0,0,1,884.5,824.9995539720665) translate(0 26.83562638936199)"/><use xlink:href="#ak" transform="matrix(1,0,0,1,884.5,824.9995539720665) translate(0 59.551570340299705)"/></g><path d="M476.5 863h69.96" stroke="#5e5e5e" stroke-width="5" fill="none"/><path d="M476.56 865.5H474v-5h2.56z" stroke="#5e5e5e" stroke-width=".05" fill="#5e5e5e"/><path d="M528.87 873.18L546.1 863l-17.23-10.18" stroke="#5e5e5e" stroke-width="5" fill="none"/><path d="M840 449.98a6 6 0 0 1 6-6h227.58a6 6 0 0 1 6 6v88a6 6 0 0 1-6 6H846a6 6 0 0 1-6-6z" stroke="#5e5e5e" stroke-width="3" fill="#fff"/><g><use xlink:href="#am" transform="matrix(1,0,0,1,852.0000000000001,455.9746459999999) translate(0 26.83562638936199)"/><use xlink:href="#an" transform="matrix(1,0,0,1,852.0000000000001,455.9746459999999) translate(66.24752980452206 26.83562638936199)"/><use xlink:href="#ao" transform="matrix(1,0,0,1,852.0000000000001,455.9746459999999) translate(0 59.551570340299705)"/></g><path d="M150.4 1116.97a6 6 0 0 1 6-6h167.57a6 6 0 0 1 6 6v46.28a6 6 0 0 1-6 6H156.4a6 6 0 0 1-6-6z" stroke="#000" stroke-opacity="0" stroke-width="5" fill="#fff" fill-opacity="0"/><g><use xlink:href="#ap" transform="matrix(1,0,0,1,155.39109539575628,1115.9750920279334) translate(3.651484546541326 32.81281422297918)"/></g><path d="M301.24 1275.56" stroke="#f2f3f5" stroke-width="5" fill="none"/><path d="M131.24 1220.36a6 6 0 0 1 6-6H364.4a6 6 0 0 1 6 6v88a6 6 0 0 1-6 6H137.23a6 6 0 0 1-6-6z" stroke="#5e5e5e" stroke-width="3" fill="#fff"/><g><use xlink:href="#aq" transform="matrix(1,0,0,1,143.2346572374537,1226.361841011931) translate(0 26.83562638936199)"/><use xlink:href="#ar" transform="matrix(1,0,0,1,143.2346572374537,1226.361841011931) translate(110.32761694368482 26.83562638936199)"/><use xlink:href="#ai" transform="matrix(1,0,0,1,143.2346572374537,1226.361841011931) translate(0 59.551570340299705)"/></g><path d="M491.24 1220.36a6 6 0 0 1 6-6H744.4a6 6 0 0 1 6 6v88a6 6 0 0 1-6 6H497.23a6 6 0 0 1-6-6z" stroke="#5e5e5e" stroke-width="3" fill="#fff"/><g><use xlink:href="#as" transform="matrix(1,0,0,1,503.2346572374539,1226.361841011931) translate(0 26.83562638936199)"/><use xlink:href="#at" transform="matrix(1,0,0,1,503.2346572374539,1226.361841011931) translate(103.44806577167675 26.83562638936199)"/><use xlink:href="#au" transform="matrix(1,0,0,1,503.2346572374539,1226.361841011931) translate(0 59.551570340299705)"/><use xlink:href="#av" transform="matrix(1,0,0,1,503.2346572374539,1226.361841011931) translate(109.98788602161032 59.551570340299705)"/></g><path d="M850.8 1220.36a6 6 0 0 1 6-6h267.6a6 6 0 0 1 6 6v88a6 6 0 0 1-6 6H856.8a6 6 0 0 1-6-6z" stroke="#5e5e5e" stroke-width="3" fill="#fff"/><g><use xlink:href="#aw" transform="matrix(1,0,0,1,862.8128763166047,1226.361841011931) translate(0 26.83562638936199)"/><use xlink:href="#ax" transform="matrix(1,0,0,1,862.8128763166047,1226.361841011931) translate(138.9499471284591 26.83562638936199)"/><use xlink:href="#au" transform="matrix(1,0,0,1,862.8128763166047,1226.361841011931) translate(0 59.551570340299705)"/><use xlink:href="#ay" transform="matrix(1,0,0,1,862.8128763166047,1226.361841011931) translate(109.98788602161032 59.551570340299705)"/></g><path d="M374.4 1264.36h110.8" stroke="#5e5e5e" stroke-width="5" fill="none"/><path d="M374.45 1266.86h-2.56v-5h2.56z" stroke="#5e5e5e" stroke-width=".05" fill="#5e5e5e"/><path d="M467.6 1274.54l17.22-10.18-17.2-10.18M754.4 1254.35h90.37" stroke="#5e5e5e" stroke-width="5" fill="none"/><path d="M754.46 1256.85h-2.57v-5h2.56z" stroke="#5e5e5e" stroke-width=".05" fill="#5e5e5e"/><path d="M827.2 1264.54l17.2-10.18-17.2-10.18M796.08 853h70.38" stroke="#5e5e5e" stroke-width="5" fill="none"/><path d="M796.14 855.5h-2.56v-5h2.56z" stroke="#5e5e5e" stroke-width=".05" fill="#5e5e5e"/><path d="M848.87 863.18L866.1 853l-17.23-10.18M464 492h49.96" stroke="#5e5e5e" stroke-width="5" fill="none"/><path d="M464.06 494.5h-2.56v-5h2.56z" stroke="#5e5e5e" stroke-width=".05" fill="#5e5e5e"/><path d="M496.37 502.17L513.6 492l-17.23-10.2M763.58 492h70.38" stroke="#5e5e5e" stroke-width="5" fill="none"/><path d="M763.64 494.5h-2.56v-5h2.56z" stroke="#5e5e5e" stroke-width=".05" fill="#5e5e5e"/><path d="M816.37 502.17L833.6 492l-17.23-10.2M652.5 606.48v80.47M652.5 606.54v-2.56M642.32 669.37l10.18 17.22 10.18-17.23M652.5 1391v83.96" stroke="#5e5e5e" stroke-width="5" fill="none"/><path d="M655 1391.07h-5v-2.57h5z" stroke="#5e5e5e" stroke-width=".05" fill="#5e5e5e"/><path d="M642.32 1457.38l10.18 17.2 10.18-17.2M652.5 997v83.95" stroke="#5e5e5e" stroke-width="5" fill="none"/><path d="M655 997.06h-5v-2.56h5z" stroke="#5e5e5e" stroke-width=".05" fill="#5e5e5e"/><path d="M642.32 1063.37l10.18 17.22 10.18-17.23" stroke="#5e5e5e" stroke-width="5" fill="none"/><defs><path d="M110-194c64 0 96 36 96 99 0 64-35 99-97 99-61 0-95-36-95-99 0-62 34-99 96-99zm-1 164c35 0 45-28 45-65 0-40-10-65-43-65-34 0-45 26-45 65 0 36 10 65 43 65" id="az"/><path d="M85 4C-2 5 27-109 22-190h50c7 57-23 150 33 157 60-5 35-97 40-157h50l1 190h-47c-2-12 1-28-3-38-12 25-28 42-61 42" id="aA"/><path d="M115-3C79 11 28 4 28-45v-112H4v-33h27l15-45h31v45h36v33H77v99c-1 23 16 31 38 25v30" id="aB"/><path d="M135-194c53 0 70 44 70 98 0 56-19 98-73 100-31 1-45-17-59-34 3 33 2 69 2 105H25l-1-265h48c2 10 0 23 3 31 11-24 29-35 60-35zM114-30c33 0 39-31 40-66 0-38-9-64-40-64-56 0-55 130 0 130" id="aC"/><path d="M35-132v-50h50v50H35zM35 0v-49h50V0H35" id="aD"/><g id="a"><use transform="matrix(0.10942202604462352,0,0,0.10942202604462352,0,0)" xlink:href="#az"/><use transform="matrix(0.10942202604462352,0,0,0.10942202604462352,23.963423703772552,0)" xlink:href="#aA"/><use transform="matrix(0.10942202604462352,0,0,0.10942202604462352,47.926847407545104,0)" xlink:href="#aB"/><use transform="matrix(0.10942202604462352,0,0,0.10942202604462352,60.9480685068553,0)" xlink:href="#aC"/><use transform="matrix(0.10942202604462352,0,0,0.10942202604462352,84.91149221062786,0)" xlink:href="#aA"/><use transform="matrix(0.10942202604462352,0,0,0.10942202604462352,108.8749159144004,0)" xlink:href="#aB"/><use transform="matrix(0.10942202604462352,0,0,0.10942202604462352,121.8961370137106,0)" xlink:href="#aD"/></g><path d="M23 0v-37h61v-169l-59 37v-38l62-41h46v211h57V0H23" id="aE"/><path d="M24 0v-54h51V0H24" id="aF"/><g id="c"><use transform="matrix(0.09599320254826754,0,0,0.09599320254826754,0,0)" xlink:href="#aE"/><use transform="matrix(0.09599320254826754,0,0,0.09599320254826754,19.198640509653508,0)" xlink:href="#aF"/></g><path d="M114-157C55-157 80-60 75 0H25v-261h50l-1 109c12-26 28-41 61-42 86-1 58 113 63 194h-50c-7-57 23-157-34-157" id="aG"/><path d="M25-224v-37h50v37H25zM25 0v-190h50V0H25" id="aH"/><path d="M195-6C206 82 75 100 31 46c-4-6-6-13-8-21l49-6c3 16 16 24 34 25 40 0 42-37 40-79-11 22-30 35-61 35-53 0-70-43-70-97 0-56 18-96 73-97 30 0 46 14 59 34l2-30h47zm-90-29c32 0 41-27 41-63 0-35-9-62-40-62-32 0-39 29-40 63 0 36 9 62 39 62" id="aI"/><g id="d"><use transform="matrix(0.09599320254826754,0,0,0.09599320254826754,0,0)" xlink:href="#aG"/><use transform="matrix(0.09599320254826754,0,0,0.09599320254826754,21.02251135807059,0)" xlink:href="#aH"/><use transform="matrix(0.09599320254826754,0,0,0.09599320254826754,30.621831612897346,0)" xlink:href="#aI"/><use transform="matrix(0.09599320254826754,0,0,0.09599320254826754,51.64434297096794,0)" xlink:href="#aG"/></g><path d="M84 4C32 4 15-41 15-95c0-55 18-99 73-99 29 0 47 12 58 34l2-30h48l-1 265h-49V-32C136-9 114 4 84 4zm21-34c32 0 41-29 41-66 0-36-9-64-40-64-33 0-39 30-40 65 0 43 13 65 39 65" id="aJ"/><path d="M133-34C117-15 103 5 69 4 32 3 11-16 11-54c-1-60 55-63 116-61 1-26-3-47-28-47-18 1-26 9-28 27l-52-2c7-38 36-58 82-57s74 22 75 68l1 82c-1 14 12 18 25 15v27c-30 8-71 5-69-32zm-48 3c29 0 43-24 42-57-32 0-66-3-65 30 0 17 8 27 23 27" id="aK"/><path d="M25 0v-261h50V0H25" id="aL"/><path d="M123 10C108 53 80 86 19 72V37c35 8 53-11 59-39L3-190h52l48 148c12-52 28-100 44-148h51" id="aM"/><g id="e"><use transform="matrix(0.09599320254826754,0,0,0.09599320254826754,0,0)" xlink:href="#aJ"/><use transform="matrix(0.09599320254826754,0,0,0.09599320254826754,21.02251135807059,0)" xlink:href="#aA"/><use transform="matrix(0.09599320254826754,0,0,0.09599320254826754,42.04502271614118,0)" xlink:href="#aK"/><use transform="matrix(0.09599320254826754,0,0,0.09599320254826754,61.24366322579469,0)" xlink:href="#aL"/><use transform="matrix(0.09599320254826754,0,0,0.09599320254826754,70.84298348062144,0)" xlink:href="#aH"/><use transform="matrix(0.09599320254826754,0,0,0.09599320254826754,80.44230373544819,0)" xlink:href="#aB"/><use transform="matrix(0.09599320254826754,0,0,0.09599320254826754,91.86549483869203,0)" xlink:href="#aM"/></g><path d="M135-194c87-1 58 113 63 194h-50c-7-57 23-157-34-157-59 0-34 97-39 157H25l-1-190h47c2 12-1 28 3 38 12-26 28-41 61-42" id="aN"/><path d="M185-48c-13 30-37 53-82 52C43 2 14-33 14-96s30-98 90-98c62 0 83 45 84 108H66c0 31 8 55 39 56 18 0 30-7 34-22zm-45-69c5-46-57-63-70-21-2 6-4 13-4 21h74" id="aO"/><g id="f"><use transform="matrix(0.09599320254826754,0,0,0.09599320254826754,0,0)" xlink:href="#aA"/><use transform="matrix(0.09599320254826754,0,0,0.09599320254826754,21.02251135807059,0)" xlink:href="#aN"/><use transform="matrix(0.09599320254826754,0,0,0.09599320254826754,42.04502271614118,0)" xlink:href="#aH"/><use transform="matrix(0.09599320254826754,0,0,0.09599320254826754,51.64434297096794,0)" xlink:href="#aJ"/><use transform="matrix(0.09599320254826754,0,0,0.09599320254826754,72.66685432903853,0)" xlink:href="#aA"/><use transform="matrix(0.09599320254826754,0,0,0.09599320254826754,93.68936568710912,0)" xlink:href="#aO"/></g><path d="M135-150c-39-12-60 13-60 57V0H25l-1-190h47c2 13-1 29 3 40 6-28 27-53 61-41v41" id="aP"/><path d="M137-138c1-29-70-34-71-4 15 46 118 7 119 86 1 83-164 76-172 9l43-7c4 19 20 25 44 25 33 8 57-30 24-41C81-84 22-81 20-136c-2-80 154-74 161-7" id="aQ"/><path d="M128 0H69L1-190h53L99-40l48-150h52" id="aR"/><g id="g"><use transform="matrix(0.09599320254826754,0,0,0.09599320254826754,0,0)" xlink:href="#aP"/><use transform="matrix(0.09599320254826754,0,0,0.09599320254826754,13.439048356757455,0)" xlink:href="#aO"/><use transform="matrix(0.09599320254826754,0,0,0.09599320254826754,32.63768886641096,0)" xlink:href="#aC"/><use transform="matrix(0.09599320254826754,0,0,0.09599320254826754,53.66020022448156,0)" xlink:href="#aP"/><use transform="matrix(0.09599320254826754,0,0,0.09599320254826754,67.09924858123901,0)" xlink:href="#aO"/><use transform="matrix(0.09599320254826754,0,0,0.09599320254826754,86.29788909089251,0)" xlink:href="#aQ"/><use transform="matrix(0.09599320254826754,0,0,0.09599320254826754,105.49652960054601,0)" xlink:href="#aO"/><use transform="matrix(0.09599320254826754,0,0,0.09599320254826754,124.69517011019951,0)" xlink:href="#aN"/><use transform="matrix(0.09599320254826754,0,0,0.09599320254826754,145.71768146827011,0)" xlink:href="#aB"/><use transform="matrix(0.09599320254826754,0,0,0.09599320254826754,157.14087257151397,0)" xlink:href="#aK"/><use transform="matrix(0.09599320254826754,0,0,0.09599320254826754,176.33951308116747,0)" xlink:href="#aB"/><use transform="matrix(0.09599320254826754,0,0,0.09599320254826754,187.7627041844113,0)" xlink:href="#aH"/><use transform="matrix(0.09599320254826754,0,0,0.09599320254826754,197.362024439238,0)" xlink:href="#aR"/><use transform="matrix(0.09599320254826754,0,0,0.09599320254826754,216.56066494889154,0)" xlink:href="#aO"/></g><path d="M190-63c-7 42-38 67-86 67-59 0-84-38-90-98-12-110 154-137 174-36l-49 2c-2-19-15-32-35-32-30 0-35 28-38 64-6 74 65 87 74 30" id="aS"/><g id="h"><use transform="matrix(0.09599320254826754,0,0,0.09599320254826754,0,0)" xlink:href="#aQ"/><use transform="matrix(0.09599320254826754,0,0,0.09599320254826754,19.198640509653508,0)" xlink:href="#aO"/><use transform="matrix(0.09599320254826754,0,0,0.09599320254826754,38.397281019307016,0)" xlink:href="#aJ"/><use transform="matrix(0.09599320254826754,0,0,0.09599320254826754,59.41979237737761,0)" xlink:href="#aA"/><use transform="matrix(0.09599320254826754,0,0,0.09599320254826754,80.44230373544819,0)" xlink:href="#aO"/><use transform="matrix(0.09599320254826754,0,0,0.09599320254826754,99.64094424510171,0)" xlink:href="#aN"/><use transform="matrix(0.09599320254826754,0,0,0.09599320254826754,120.6634556031723,0)" xlink:href="#aS"/><use transform="matrix(0.09599320254826754,0,0,0.09599320254826754,139.8620961128258,0)" xlink:href="#aO"/></g><path d="M121-226c-27-7-43 5-38 36h38v33H83V0H34v-157H6v-33h28c-9-59 32-81 87-68v32" id="aT"/><g id="i"><use transform="matrix(0.09599320254826754,0,0,0.09599320254826754,0,0)" xlink:href="#aT"/><use transform="matrix(0.09599320254826754,0,0,0.09599320254826754,11.423191103243838,0)" xlink:href="#az"/><use transform="matrix(0.09599320254826754,0,0,0.09599320254826754,32.445702461314426,0)" xlink:href="#aP"/></g><g id="j"><use transform="matrix(0.09599320254826754,0,0,0.09599320254826754,0,0)" xlink:href="#aO"/><use transform="matrix(0.09599320254826754,0,0,0.09599320254826754,19.198640509653508,0)" xlink:href="#aK"/><use transform="matrix(0.09599320254826754,0,0,0.09599320254826754,38.397281019307016,0)" xlink:href="#aS"/><use transform="matrix(0.09599320254826754,0,0,0.09599320254826754,57.595921528960524,0)" xlink:href="#aG"/></g><path d="M220-157c-53 9-28 100-34 157h-49v-107c1-27-5-49-29-50C55-147 81-57 75 0H25l-1-190h47c2 12-1 28 3 38 10-53 101-56 108 0 13-22 24-43 59-42 82 1 51 116 57 194h-49v-107c-1-25-5-48-29-50" id="aU"/><g id="k"><use transform="matrix(0.09599320254826754,0,0,0.09599320254826754,0,0)" xlink:href="#aQ"/><use transform="matrix(0.09599320254826754,0,0,0.09599320254826754,19.198640509653508,0)" xlink:href="#aK"/><use transform="matrix(0.09599320254826754,0,0,0.09599320254826754,38.397281019307016,0)" xlink:href="#aU"/><use transform="matrix(0.09599320254826754,0,0,0.09599320254826754,69.11510583475263,0)" xlink:href="#aC"/><use transform="matrix(0.09599320254826754,0,0,0.09599320254826754,90.13761719282321,0)" xlink:href="#aL"/><use transform="matrix(0.09599320254826754,0,0,0.09599320254826754,99.73693744764995,0)" xlink:href="#aO"/></g><path d="M67-93c0 74 22 123 53 168H70C40 30 18-18 18-93s22-123 52-168h50c-32 44-53 94-53 168" id="aV"/><path d="M102-93c0 74-22 123-52 168H0C30 29 54-18 53-93c0-74-22-123-53-168h50c30 45 52 94 52 168" id="aW"/><g id="l"><use transform="matrix(0.09599320254826754,0,0,0.09599320254826754,0,0)" xlink:href="#aV"/><use transform="matrix(0.09599320254826754,0,0,0.09599320254826754,11.423191103243838,0)" xlink:href="#aT"/><use transform="matrix(0.09599320254826754,0,0,0.09599320254826754,22.846382206487675,0)" xlink:href="#aK"/><use transform="matrix(0.09599320254826754,0,0,0.09599320254826754,42.04502271614118,0)" xlink:href="#aQ"/><use transform="matrix(0.09599320254826754,0,0,0.09599320254826754,61.24366322579469,0)" xlink:href="#aB"/><use transform="matrix(0.09599320254826754,0,0,0.09599320254826754,72.66685432903853,0)" xlink:href="#aK"/><use transform="matrix(0.09599320254826754,0,0,0.09599320254826754,91.86549483869203,0)" xlink:href="#aW"/></g><path d="M182-182c0 78-84 86-111 141h115V0H12c-6-101 99-100 120-180 1-22-12-31-33-32-23 0-32 14-35 34l-49-3c5-45 32-70 84-70 51 0 83 22 83 69" id="aX"/><g id="m"><use transform="matrix(0.09599320254826754,0,0,0.09599320254826754,0,0)" xlink:href="#aX"/><use transform="matrix(0.09599320254826754,0,0,0.09599320254826754,19.198640509653508,0)" xlink:href="#aF"/></g><g id="n"><use transform="matrix(0.09599320254826754,0,0,0.09599320254826754,0,0)" xlink:href="#aC"/><use transform="matrix(0.09599320254826754,0,0,0.09599320254826754,21.02251135807059,0)" xlink:href="#aL"/><use transform="matrix(0.09599320254826754,0,0,0.09599320254826754,30.621831612897346,0)" xlink:href="#aK"/><use transform="matrix(0.09599320254826754,0,0,0.09599320254826754,49.820472122550854,0)" xlink:href="#aH"/><use transform="matrix(0.09599320254826754,0,0,0.09599320254826754,59.41979237737761,0)" xlink:href="#aN"/></g><g id="o"><use transform="matrix(0.09599320254826754,0,0,0.09599320254826754,0,0)" xlink:href="#aP"/><use transform="matrix(0.09599320254826754,0,0,0.09599320254826754,13.439048356757455,0)" xlink:href="#aO"/><use transform="matrix(0.09599320254826754,0,0,0.09599320254826754,32.63768886641096,0)" xlink:href="#aC"/><use transform="matrix(0.09599320254826754,0,0,0.09599320254826754,53.66020022448156,0)" xlink:href="#az"/><use transform="matrix(0.09599320254826754,0,0,0.09599320254826754,74.68271158255214,0)" xlink:href="#aP"/><use transform="matrix(0.09599320254826754,0,0,0.09599320254826754,88.1217599393096,0)" xlink:href="#aB"/></g><g id="p"><use transform="matrix(0.09599320254826754,0,0,0.09599320254826754,0,0)" xlink:href="#aT"/><use transform="matrix(0.09599320254826754,0,0,0.09599320254826754,11.423191103243838,0)" xlink:href="#aH"/><use transform="matrix(0.09599320254826754,0,0,0.09599320254826754,21.02251135807059,0)" xlink:href="#aL"/><use transform="matrix(0.09599320254826754,0,0,0.09599320254826754,30.621831612897346,0)" xlink:href="#aO"/></g><g id="q"><use transform="matrix(0.09599320254826754,0,0,0.09599320254826754,0,0)" xlink:href="#aQ"/><use transform="matrix(0.09599320254826754,0,0,0.09599320254826754,19.198640509653508,0)" xlink:href="#aK"/><use transform="matrix(0.09599320254826754,0,0,0.09599320254826754,38.397281019307016,0)" xlink:href="#aU"/><use transform="matrix(0.09599320254826754,0,0,0.09599320254826754,69.11510583475263,0)" xlink:href="#aC"/><use transform="matrix(0.09599320254826754,0,0,0.09599320254826754,90.13761719282321,0)" xlink:href="#aL"/><use transform="matrix(0.09599320254826754,0,0,0.09599320254826754,99.73693744764995,0)" xlink:href="#aO"/></g><g id="r"><use transform="matrix(0.09599320254826754,0,0,0.09599320254826754,0,0)" xlink:href="#aV"/><use transform="matrix(0.09599320254826754,0,0,0.09599320254826754,11.423191103243838,0)" xlink:href="#aU"/><use transform="matrix(0.09599320254826754,0,0,0.09599320254826754,42.14101591868945,0)" xlink:href="#aO"/><use transform="matrix(0.09599320254826754,0,0,0.09599320254826754,61.33965642834296,0)" xlink:href="#aK"/><use transform="matrix(0.09599320254826754,0,0,0.09599320254826754,80.53829693799646,0)" xlink:href="#aN"/></g><path d="M88-194c31-1 46 15 58 34l-1-101h50l1 261h-48c-2-10 0-23-3-31C134-8 116 4 84 4 32 4 16-41 15-95c0-56 19-97 73-99zm17 164c33 0 40-30 41-66 1-37-9-64-41-64s-38 30-39 65c0 43 13 65 39 65" id="aY"/><g id="s"><use transform="matrix(0.09599320254826754,0,0,0.09599320254826754,0,0)" xlink:href="#aP"/><use transform="matrix(0.09599320254826754,0,0,0.09599320254826754,13.439048356757455,0)" xlink:href="#aO"/><use transform="matrix(0.09599320254826754,0,0,0.09599320254826754,32.63768886641096,0)" xlink:href="#aK"/><use transform="matrix(0.09599320254826754,0,0,0.09599320254826754,51.83632937606447,0)" xlink:href="#aY"/></g><path d="M76-54c-1 42 2 86-19 110H24C36 42 46 24 48 0H25v-54h51" id="aZ"/><g id="t"><use transform="matrix(0.09599320254826754,0,0,0.09599320254826754,0,0)" xlink:href="#aY"/><use transform="matrix(0.09599320254826754,0,0,0.09599320254826754,21.02251135807059,0)" xlink:href="#aO"/><use transform="matrix(0.09599320254826754,0,0,0.09599320254826754,40.2211518677241,0)" xlink:href="#aC"/><use transform="matrix(0.09599320254826754,0,0,0.09599320254826754,61.24366322579469,0)" xlink:href="#aB"/><use transform="matrix(0.09599320254826754,0,0,0.09599320254826754,72.66685432903853,0)" xlink:href="#aG"/><use transform="matrix(0.09599320254826754,0,0,0.09599320254826754,93.68936568710912,0)" xlink:href="#aZ"/></g><g id="u"><use transform="matrix(0.09599320254826754,0,0,0.09599320254826754,0,0)" xlink:href="#aC"/><use transform="matrix(0.09599320254826754,0,0,0.09599320254826754,21.02251135807059,0)" xlink:href="#aP"/><use transform="matrix(0.09599320254826754,0,0,0.09599320254826754,34.46155971482805,0)" xlink:href="#aH"/><use transform="matrix(0.09599320254826754,0,0,0.09599320254826754,44.060879969654806,0)" xlink:href="#aU"/><use transform="matrix(0.09599320254826754,0,0,0.09599320254826754,74.77870478510042,0)" xlink:href="#aO"/><use transform="matrix(0.09599320254826754,0,0,0.09599320254826754,93.97734529475392,0)" xlink:href="#aP"/></g><g id="v"><use transform="matrix(0.09599320254826754,0,0,0.09599320254826754,0,0)" xlink:href="#aQ"/><use transform="matrix(0.09599320254826754,0,0,0.09599320254826754,19.198640509653508,0)" xlink:href="#aA"/><use transform="matrix(0.09599320254826754,0,0,0.09599320254826754,40.2211518677241,0)" xlink:href="#aS"/><use transform="matrix(0.09599320254826754,0,0,0.09599320254826754,59.41979237737761,0)" xlink:href="#aS"/><use transform="matrix(0.09599320254826754,0,0,0.09599320254826754,78.61843288703112,0)" xlink:href="#aO"/><use transform="matrix(0.09599320254826754,0,0,0.09599320254826754,97.81707339668463,0)" xlink:href="#aQ"/><use transform="matrix(0.09599320254826754,0,0,0.09599320254826754,117.01571390633814,0)" xlink:href="#aQ"/></g><g id="w"><use transform="matrix(0.09599320254826754,0,0,0.09599320254826754,0,0)" xlink:href="#aP"/><use transform="matrix(0.09599320254826754,0,0,0.09599320254826754,13.439048356757455,0)" xlink:href="#aK"/><use transform="matrix(0.09599320254826754,0,0,0.09599320254826754,32.63768886641096,0)" xlink:href="#aB"/><use transform="matrix(0.09599320254826754,0,0,0.09599320254826754,44.0608799696548,0)" xlink:href="#aO"/><use transform="matrix(0.09599320254826754,0,0,0.09599320254826754,63.25952047930831,0)" xlink:href="#aW"/></g><path d="M128-127c34 4 56 21 59 58 7 91-148 94-172 28-4-9-6-17-7-26l51-5c1 24 16 35 40 36 23 0 39-12 38-36-1-31-31-36-65-34v-40c32 2 59-3 59-33 0-20-13-33-34-33s-33 13-35 32l-50-3c6-44 37-68 86-68 50 0 83 20 83 66 0 35-22 52-53 58" id="ba"/><g id="x"><use transform="matrix(0.09105505440011939,0,0,0.09105505440011939,0,0)" xlink:href="#ba"/><use transform="matrix(0.09105505440011939,0,0,0.09105505440011939,18.211010880023878,0)" xlink:href="#aF"/></g><g id="y"><use transform="matrix(0.09105505440011939,0,0,0.09105505440011939,0,0)" xlink:href="#az"/><use transform="matrix(0.09105505440011939,0,0,0.09105505440011939,19.94105691362615,0)" xlink:href="#aC"/><use transform="matrix(0.09105505440011939,0,0,0.09105505440011939,39.8821138272523,0)" xlink:href="#aB"/><use transform="matrix(0.09105505440011939,0,0,0.09105505440011939,50.717665300866514,0)" xlink:href="#aH"/><use transform="matrix(0.09105505440011939,0,0,0.09105505440011939,59.82317074087844,0)" xlink:href="#az"/><use transform="matrix(0.09105505440011939,0,0,0.09105505440011939,79.7642276545046,0)" xlink:href="#aN"/><use transform="matrix(0.09105505440011939,0,0,0.09105505440011939,99.70528456813074,0)" xlink:href="#aK"/><use transform="matrix(0.09105505440011939,0,0,0.09105505440011939,117.91629544815461,0)" xlink:href="#aL"/><use transform="matrix(0.09105505440011939,0,0,0.09105505440011939,127.02180088816655,0)" xlink:href="#aD"/></g><path d="M135-194c52 0 70 43 70 98 0 56-19 99-73 100-30 1-46-15-58-35L72 0H24l1-261h50v104c11-23 29-37 60-37zM114-30c31 0 40-27 40-66 0-37-7-63-39-63s-41 28-41 65c0 36 8 64 40 64" id="bb"/><g id="z"><use transform="matrix(0.09105505440011939,0,0,0.09105505440011939,0,0)" xlink:href="#aK"/><use transform="matrix(0.09105505440011939,0,0,0.09105505440011939,18.211010880023878,0)" xlink:href="#bb"/><use transform="matrix(0.09105505440011939,0,0,0.09105505440011939,38.152067793650026,0)" xlink:href="#aA"/><use transform="matrix(0.09105505440011939,0,0,0.09105505440011939,58.093124707276175,0)" xlink:href="#aN"/><use transform="matrix(0.09105505440011939,0,0,0.09105505440011939,78.03418162090233,0)" xlink:href="#aY"/><use transform="matrix(0.09105505440011939,0,0,0.09105505440011939,97.97523853452847,0)" xlink:href="#aK"/><use transform="matrix(0.09105505440011939,0,0,0.09105505440011939,116.18624941455235,0)" xlink:href="#aN"/><use transform="matrix(0.09105505440011939,0,0,0.09105505440011939,136.1273063281785,0)" xlink:href="#aS"/><use transform="matrix(0.09105505440011939,0,0,0.09105505440011939,154.33831720820237,0)" xlink:href="#aO"/></g><g id="A"><use transform="matrix(0.09105505440011939,0,0,0.09105505440011939,0,0)" xlink:href="#aS"/><use transform="matrix(0.09105505440011939,0,0,0.09105505440011939,18.211010880023878,0)" xlink:href="#az"/><use transform="matrix(0.09105505440011939,0,0,0.09105505440011939,38.152067793650026,0)" xlink:href="#aA"/><use transform="matrix(0.09105505440011939,0,0,0.09105505440011939,58.093124707276175,0)" xlink:href="#aN"/><use transform="matrix(0.09105505440011939,0,0,0.09105505440011939,78.03418162090233,0)" xlink:href="#aB"/></g><g id="B"><use transform="matrix(0.09105505440011939,0,0,0.09105505440011939,0,0)" xlink:href="#aB"/><use transform="matrix(0.09105505440011939,0,0,0.09105505440011939,10.835551473614208,0)" xlink:href="#aK"/><use transform="matrix(0.09105505440011939,0,0,0.09105505440011939,29.046562353638087,0)" xlink:href="#bb"/><use transform="matrix(0.09105505440011939,0,0,0.09105505440011939,48.987619267264236,0)" xlink:href="#aL"/><use transform="matrix(0.09105505440011939,0,0,0.09105505440011939,58.093124707276175,0)" xlink:href="#aO"/></g><g id="C"><use transform="matrix(0.09105505440011939,0,0,0.09105505440011939,0,0)" xlink:href="#aT"/><use transform="matrix(0.09105505440011939,0,0,0.09105505440011939,10.835551473614208,0)" xlink:href="#aH"/><use transform="matrix(0.09105505440011939,0,0,0.09105505440011939,19.94105691362615,0)" xlink:href="#aL"/><use transform="matrix(0.09105505440011939,0,0,0.09105505440011939,29.046562353638087,0)" xlink:href="#aO"/></g><path d="M165-50V0h-47v-50H5v-38l105-160h55v161h33v37h-33zm-47-37l2-116L46-87h72" id="bc"/><g id="D"><use transform="matrix(0.09105505440011939,0,0,0.09105505440011939,0,0)" xlink:href="#bc"/><use transform="matrix(0.09105505440011939,0,0,0.09105505440011939,18.211010880023878,0)" xlink:href="#aF"/></g><g id="E"><use transform="matrix(0.09105505440011939,0,0,0.09105505440011939,0,0)" xlink:href="#aS"/><use transform="matrix(0.09105505440011939,0,0,0.09105505440011939,18.211010880023878,0)" xlink:href="#az"/><use transform="matrix(0.09105505440011939,0,0,0.09105505440011939,38.152067793650026,0)" xlink:href="#aU"/><use transform="matrix(0.09105505440011939,0,0,0.09105505440011939,67.28968520168823,0)" xlink:href="#bb"/><use transform="matrix(0.09105505440011939,0,0,0.09105505440011939,87.23074211531437,0)" xlink:href="#aH"/><use transform="matrix(0.09105505440011939,0,0,0.09105505440011939,96.33624755532632,0)" xlink:href="#aN"/><use transform="matrix(0.09105505440011939,0,0,0.09105505440011939,116.27730446895244,0)" xlink:href="#aO"/><use transform="matrix(0.09105505440011939,0,0,0.09105505440011939,134.48831534897633,0)" xlink:href="#aY"/></g><g id="F"><use transform="matrix(0.09105505440011939,0,0,0.09105505440011939,0,0)" xlink:href="#aP"/><use transform="matrix(0.09105505440011939,0,0,0.09105505440011939,12.747707616016715,0)" xlink:href="#aO"/><use transform="matrix(0.09105505440011939,0,0,0.09105505440011939,30.958718496040593,0)" xlink:href="#aC"/><use transform="matrix(0.09105505440011939,0,0,0.09105505440011939,50.89977540966674,0)" xlink:href="#az"/><use transform="matrix(0.09105505440011939,0,0,0.09105505440011939,70.84083232329289,0)" xlink:href="#aP"/><use transform="matrix(0.09105505440011939,0,0,0.09105505440011939,83.5885399393096,0)" xlink:href="#aB"/></g><g id="G"><use transform="matrix(0.09105505440011939,0,0,0.09105505440011939,0,0)" xlink:href="#aT"/><use transform="matrix(0.09105505440011939,0,0,0.09105505440011939,10.835551473614208,0)" xlink:href="#az"/><use transform="matrix(0.09105505440011939,0,0,0.09105505440011939,30.77660838724036,0)" xlink:href="#aP"/></g><g id="H"><use transform="matrix(0.09105505440011939,0,0,0.09105505440011939,0,0)" xlink:href="#aK"/><use transform="matrix(0.09105505440011939,0,0,0.09105505440011939,18.211010880023878,0)" xlink:href="#aL"/><use transform="matrix(0.09105505440011939,0,0,0.09105505440011939,27.316516320035817,0)" xlink:href="#aL"/></g><g id="I"><use transform="matrix(0.09105505440011939,0,0,0.09105505440011939,0,0)" xlink:href="#aQ"/><use transform="matrix(0.09105505440011939,0,0,0.09105505440011939,18.211010880023878,0)" xlink:href="#aK"/><use transform="matrix(0.09105505440011939,0,0,0.09105505440011939,36.422021760047755,0)" xlink:href="#aU"/><use transform="matrix(0.09105505440011939,0,0,0.09105505440011939,65.55963916808597,0)" xlink:href="#aC"/><use transform="matrix(0.09105505440011939,0,0,0.09105505440011939,85.5006960817121,0)" xlink:href="#aL"/><use transform="matrix(0.09105505440011939,0,0,0.09105505440011939,94.60620152172405,0)" xlink:href="#aO"/><use transform="matrix(0.09105505440011939,0,0,0.09105505440011939,112.81721240174792,0)" xlink:href="#aQ"/></g><g id="J"><use transform="matrix(0.10942202604462352,0,0,0.10942202604462352,0,0)" xlink:href="#aH"/><use transform="matrix(0.10942202604462352,0,0,0.10942202604462352,10.942202604462352,0)" xlink:href="#aN"/><use transform="matrix(0.10942202604462352,0,0,0.10942202604462352,34.9056263082349,0)" xlink:href="#aC"/><use transform="matrix(0.10942202604462352,0,0,0.10942202604462352,58.869050012007456,0)" xlink:href="#aA"/><use transform="matrix(0.10942202604462352,0,0,0.10942202604462352,82.83247371578,0)" xlink:href="#aB"/><use transform="matrix(0.10942202604462352,0,0,0.10942202604462352,95.8536948150902,0)" xlink:href="#aD"/></g><path d="M24 0v-248h52V0H24" id="bd"/><g id="K"><use transform="matrix(0.09599320254826754,0,0,0.09599320254826754,0,0)" xlink:href="#bd"/><path fill="#8080ff" d="M-1.73 1.86h13.06V5.5H-1.73z"/><use transform="matrix(0.09599320254826754,0,0,0.09599320254826754,9.599320254826754,0)" xlink:href="#aL"/><use transform="matrix(0.09599320254826754,0,0,0.09599320254826754,19.198640509653508,0)" xlink:href="#aL"/><use transform="matrix(0.09599320254826754,0,0,0.09599320254826754,28.797960764480262,0)" xlink:href="#aA"/><use transform="matrix(0.09599320254826754,0,0,0.09599320254826754,49.820472122550854,0)" xlink:href="#aU"/><use transform="matrix(0.09599320254826754,0,0,0.09599320254826754,80.53829693799646,0)" xlink:href="#aH"/><use transform="matrix(0.09599320254826754,0,0,0.09599320254826754,90.13761719282321,0)" xlink:href="#aN"/><use transform="matrix(0.09599320254826754,0,0,0.09599320254826754,111.16012855089379,0)" xlink:href="#aK"/></g><path d="M230 0l2-204L168 0h-37L68-204 70 0H24v-248h70l56 185 57-185h69V0h-46" id="be"/><g id="L"><use transform="matrix(0.09599320254826754,0,0,0.09599320254826754,0,0)" xlink:href="#be"/><use transform="matrix(0.09599320254826754,0,0,0.09599320254826754,28.701967561931994,0)" xlink:href="#aH"/><use transform="matrix(0.09599320254826754,0,0,0.09599320254826754,38.301287816758744,0)" xlink:href="#aQ"/><use transform="matrix(0.09599320254826754,0,0,0.09599320254826754,57.49992832641226,0)" xlink:href="#aO"/><use transform="matrix(0.09599320254826754,0,0,0.09599320254826754,76.69856883606576,0)" xlink:href="#aJ"/></g><path d="M14-72v-43h91v43H14" id="bf"/><g id="M"><use transform="matrix(0.09599320254826754,0,0,0.09599320254826754,0,0)" xlink:href="#aC"/><use transform="matrix(0.09599320254826754,0,0,0.09599320254826754,21.02251135807059,0)" xlink:href="#aK"/><use transform="matrix(0.09599320254826754,0,0,0.09599320254826754,40.2211518677241,0)" xlink:href="#aH"/><use transform="matrix(0.09599320254826754,0,0,0.09599320254826754,49.820472122550854,0)" xlink:href="#aP"/><use transform="matrix(0.09599320254826754,0,0,0.09599320254826754,63.25952047930831,0)" xlink:href="#bf"/><use transform="matrix(0.09599320254826754,0,0,0.09599320254826754,74.68271158255214,0)" xlink:href="#aO"/><use transform="matrix(0.09599320254826754,0,0,0.09599320254826754,93.88135209220565,0)" xlink:href="#aN"/><use transform="matrix(0.09599320254826754,0,0,0.09599320254826754,114.90386345027622,0)" xlink:href="#aY"/></g><path d="M231 0h-52l-39-155L100 0H48L-1-190h46L77-45c9-52 24-97 36-145h53l37 145 32-145h46" id="bg"/><g id="N"><use transform="matrix(0.09599320254826754,0,0,0.09599320254826754,0,0)" xlink:href="#aP"/><use transform="matrix(0.09599320254826754,0,0,0.09599320254826754,13.439048356757455,0)" xlink:href="#aK"/><use transform="matrix(0.09599320254826754,0,0,0.09599320254826754,32.63768886641096,0)" xlink:href="#bg"/></g><g id="O"><use transform="matrix(0.09599320254826754,0,0,0.09599320254826754,0,0)" xlink:href="#aP"/><use transform="matrix(0.09599320254826754,0,0,0.09599320254826754,13.439048356757455,0)" xlink:href="#aO"/><use transform="matrix(0.09599320254826754,0,0,0.09599320254826754,32.63768886641096,0)" xlink:href="#aK"/><use transform="matrix(0.09599320254826754,0,0,0.09599320254826754,51.83632937606447,0)" xlink:href="#aY"/><use transform="matrix(0.09599320254826754,0,0,0.09599320254826754,72.85884073413506,0)" xlink:href="#aQ"/></g><path d="M12 0v-35l95-120H19v-35h142v35L67-36h103V0H12" id="bh"/><g id="P"><use transform="matrix(0.09599320254826754,0,0,0.09599320254826754,0,0)" xlink:href="#aV"/><use transform="matrix(0.09599320254826754,0,0,0.09599320254826754,11.423191103243838,0)" xlink:href="#aT"/><use transform="matrix(0.09599320254826754,0,0,0.09599320254826754,22.846382206487675,0)" xlink:href="#aK"/><use transform="matrix(0.09599320254826754,0,0,0.09599320254826754,42.04502271614118,0)" xlink:href="#aQ"/><use transform="matrix(0.09599320254826754,0,0,0.09599320254826754,61.24366322579469,0)" xlink:href="#aB"/><use transform="matrix(0.09599320254826754,0,0,0.09599320254826754,72.66685432903853,0)" xlink:href="#aJ"/><use transform="matrix(0.09599320254826754,0,0,0.09599320254826754,93.68936568710912,0)" xlink:href="#aF"/><use transform="matrix(0.09599320254826754,0,0,0.09599320254826754,103.28868594193588,0)" xlink:href="#aI"/><use transform="matrix(0.09599320254826754,0,0,0.09599320254826754,124.31119730000644,0)" xlink:href="#bh"/><use transform="matrix(0.09599320254826754,0,0,0.09599320254826754,141.5899737586946,0)" xlink:href="#aW"/></g><g id="Q"><use transform="matrix(0.09105505440011939,0,0,0.09105505440011939,0,0)" xlink:href="#aX"/><use transform="matrix(0.09105505440011939,0,0,0.09105505440011939,18.211010880023878,0)" xlink:href="#aF"/></g><g id="R"><use transform="matrix(0.09105505440011939,0,0,0.09105505440011939,0,0)" xlink:href="#aC"/><use transform="matrix(0.09105505440011939,0,0,0.09105505440011939,19.94105691362615,0)" xlink:href="#aL"/><use transform="matrix(0.09105505440011939,0,0,0.09105505440011939,29.046562353638087,0)" xlink:href="#aK"/><use transform="matrix(0.09105505440011939,0,0,0.09105505440011939,47.257573233661965,0)" xlink:href="#aH"/><use transform="matrix(0.09105505440011939,0,0,0.09105505440011939,56.363078673673904,0)" xlink:href="#aN"/></g><path d="M144 0l-44-69L55 0H2l70-98-66-92h53l41 62 40-62h54l-67 91 71 99h-54" id="bi"/><g id="S"><use transform="matrix(0.09105505440011939,0,0,0.09105505440011939,0,0)" xlink:href="#aB"/><use transform="matrix(0.09105505440011939,0,0,0.09105505440011939,10.835551473614208,0)" xlink:href="#aO"/><use transform="matrix(0.09105505440011939,0,0,0.09105505440011939,29.046562353638087,0)" xlink:href="#bi"/><use transform="matrix(0.09105505440011939,0,0,0.09105505440011939,47.257573233661965,0)" xlink:href="#aB"/></g><g id="T"><use transform="matrix(0.09105505440011939,0,0,0.09105505440011939,0,0)" xlink:href="#aT"/><use transform="matrix(0.09105505440011939,0,0,0.09105505440011939,10.835551473614208,0)" xlink:href="#aH"/><use transform="matrix(0.09105505440011939,0,0,0.09105505440011939,19.94105691362615,0)" xlink:href="#aL"/><use transform="matrix(0.09105505440011939,0,0,0.09105505440011939,29.046562353638087,0)" xlink:href="#aO"/></g><g id="U"><use transform="matrix(0.09105505440011939,0,0,0.09105505440011939,0,0)" xlink:href="#az"/><use transform="matrix(0.09105505440011939,0,0,0.09105505440011939,19.94105691362615,0)" xlink:href="#aT"/></g><g id="V"><use transform="matrix(0.09105505440011939,0,0,0.09105505440011939,0,0)" xlink:href="#aC"/><use transform="matrix(0.09105505440011939,0,0,0.09105505440011939,19.94105691362615,0)" xlink:href="#aP"/><use transform="matrix(0.09105505440011939,0,0,0.09105505440011939,32.68876452964287,0)" xlink:href="#aH"/><use transform="matrix(0.09105505440011939,0,0,0.09105505440011939,41.794269969654806,0)" xlink:href="#aU"/><use transform="matrix(0.09105505440011939,0,0,0.09105505440011939,70.93188737769302,0)" xlink:href="#aO"/><use transform="matrix(0.09105505440011939,0,0,0.09105505440011939,89.1428982577169,0)" xlink:href="#aP"/></g><g id="W"><use transform="matrix(0.09105505440011939,0,0,0.09105505440011939,0,0)" xlink:href="#aH"/><use transform="matrix(0.09105505440011939,0,0,0.09105505440011939,9.105505440011939,0)" xlink:href="#aN"/><use transform="matrix(0.09105505440011939,0,0,0.09105505440011939,29.046562353638087,0)" xlink:href="#aT"/><use transform="matrix(0.09105505440011939,0,0,0.09105505440011939,39.8821138272523,0)" xlink:href="#az"/><use transform="matrix(0.09105505440011939,0,0,0.09105505440011939,59.82317074087844,0)" xlink:href="#aP"/><use transform="matrix(0.09105505440011939,0,0,0.09105505440011939,72.57087835689516,0)" xlink:href="#aU"/><use transform="matrix(0.09105505440011939,0,0,0.09105505440011939,101.70849576493339,0)" xlink:href="#aK"/><use transform="matrix(0.09105505440011939,0,0,0.09105505440011939,119.91950664495727,0)" xlink:href="#aB"/><use transform="matrix(0.09105505440011939,0,0,0.09105505440011939,130.75505811857147,0)" xlink:href="#aH"/><use transform="matrix(0.09105505440011939,0,0,0.09105505440011939,139.8605635585834,0)" xlink:href="#az"/><use transform="matrix(0.09105505440011939,0,0,0.09105505440011939,159.80162047220955,0)" xlink:href="#aN"/></g><g id="X"><use transform="matrix(0.10329970216312213,0,0,0.10329970216312213,0,0)" xlink:href="#aP"/><use transform="matrix(0.10329970216312213,0,0,0.10329970216312213,14.461958302837099,0)" xlink:href="#aO"/><use transform="matrix(0.10329970216312213,0,0,0.10329970216312213,35.12189873546153,0)" xlink:href="#aK"/><use transform="matrix(0.10329970216312213,0,0,0.10329970216312213,55.78183916808595,0)" xlink:href="#aY"/><use transform="matrix(0.10329970216312213,0,0,0.10329970216312213,78.4044739418097,0)" xlink:href="#aQ"/></g><g id="Y"><use transform="matrix(0.10329970216312213,0,0,0.10329970216312213,0,0)" xlink:href="#aC"/><use transform="matrix(0.10329970216312213,0,0,0.10329970216312213,22.622634773723746,0)" xlink:href="#aP"/><use transform="matrix(0.10329970216312213,0,0,0.10329970216312213,37.08459307656084,0)" xlink:href="#az"/><use transform="matrix(0.10329970216312213,0,0,0.10329970216312213,59.707227850284596,0)" xlink:href="#aS"/><use transform="matrix(0.10329970216312213,0,0,0.10329970216312213,80.36716828290902,0)" xlink:href="#aO"/><use transform="matrix(0.10329970216312213,0,0,0.10329970216312213,101.02710871553344,0)" xlink:href="#aQ"/><use transform="matrix(0.10329970216312213,0,0,0.10329970216312213,121.68704914815787,0)" xlink:href="#aQ"/><use transform="matrix(0.10329970216312213,0,0,0.10329970216312213,142.3469895807823,0)" xlink:href="#aH"/><use transform="matrix(0.10329970216312213,0,0,0.10329970216312213,152.6769597970945,0)" xlink:href="#aN"/><use transform="matrix(0.10329970216312213,0,0,0.10329970216312213,175.29959457081824,0)" xlink:href="#aI"/></g><path d="M24-248c93 1 206-16 204 79-1 75-69 88-152 82V0H24v-248zm52 121c47 0 100 7 100-41 0-47-54-39-100-39v80" id="bj"/><g id="Z"><use transform="matrix(0.08493273051861802,0,0,0.08493273051861802,0,0)" xlink:href="#bj"/><use transform="matrix(0.08493273051861802,0,0,0.08493273051861802,20.383855324468325,0)" xlink:href="#aP"/><use transform="matrix(0.08493273051861802,0,0,0.08493273051861802,32.27443759707485,0)" xlink:href="#aH"/><use transform="matrix(0.08493273051861802,0,0,0.08493273051861802,40.76771064893666,0)" xlink:href="#aU"/><use transform="matrix(0.08493273051861802,0,0,0.08493273051861802,67.94618441489442,0)" xlink:href="#aO"/><use transform="matrix(0.08493273051861802,0,0,0.08493273051861802,84.93273051861803,0)" xlink:href="#aP"/></g><g id="aa"><use transform="matrix(0.08493273051861802,0,0,0.08493273051861802,0,0)" xlink:href="#aP"/><use transform="matrix(0.08493273051861802,0,0,0.08493273051861802,11.890582272606522,0)" xlink:href="#aO"/><use transform="matrix(0.08493273051861802,0,0,0.08493273051861802,28.877128376330127,0)" xlink:href="#aU"/><use transform="matrix(0.08493273051861802,0,0,0.08493273051861802,56.055602142287896,0)" xlink:href="#az"/><use transform="matrix(0.08493273051861802,0,0,0.08493273051861802,74.65587012586525,0)" xlink:href="#aR"/><use transform="matrix(0.08493273051861802,0,0,0.08493273051861802,91.64241622958886,0)" xlink:href="#aK"/><use transform="matrix(0.08493273051861802,0,0,0.08493273051861802,108.62896233331247,0)" xlink:href="#aL"/><use transform="matrix(0.08493273051861802,0,0,0.08493273051861802,117.12223538517426,0)" xlink:href="#aD"/></g><g id="ab"><use transform="matrix(0.08493273051861802,0,0,0.08493273051861802,0,0)" xlink:href="#aS"/><use transform="matrix(0.08493273051861802,0,0,0.08493273051861802,16.986546103723605,0)" xlink:href="#aA"/><use transform="matrix(0.08493273051861802,0,0,0.08493273051861802,35.58681408730095,0)" xlink:href="#aB"/><use transform="matrix(0.08493273051861802,0,0,0.08493273051861802,45.6938090190165,0)" xlink:href="#aK"/><use transform="matrix(0.08493273051861802,0,0,0.08493273051861802,62.6803551227401,0)" xlink:href="#aY"/><use transform="matrix(0.08493273051861802,0,0,0.08493273051861802,81.28062310631745,0)" xlink:href="#aK"/><use transform="matrix(0.08493273051861802,0,0,0.08493273051861802,98.26716921004108,0)" xlink:href="#aC"/><use transform="matrix(0.08493273051861802,0,0,0.08493273051861802,116.8674371936184,0)" xlink:href="#aB"/></g><path d="M67-125c0 53 21 87 73 88 37 1 54-22 65-47l45 17C233-25 199 4 140 4 58 4 20-42 15-125 8-235 124-281 211-232c18 10 29 29 36 50l-46 12c-8-25-30-41-62-41-52 0-71 34-72 86" id="bk"/><g id="ac"><use transform="matrix(0.08493273051861802,0,0,0.08493273051861802,0,0)" xlink:href="#bk"/><use transform="matrix(0.08493273051861802,0,0,0.08493273051861802,21.997577204322067,0)" xlink:href="#az"/><use transform="matrix(0.08493273051861802,0,0,0.08493273051861802,40.59784518789941,0)" xlink:href="#aN"/><use transform="matrix(0.08493273051861802,0,0,0.08493273051861802,59.19811317147675,0)" xlink:href="#aS"/><use transform="matrix(0.08493273051861802,0,0,0.08493273051861802,76.18465927520036,0)" xlink:href="#aK"/><use transform="matrix(0.08493273051861802,0,0,0.08493273051861802,93.17120537892394,0)" xlink:href="#aB"/></g><g id="ad"><use transform="matrix(0.08493273051861802,0,0,0.08493273051861802,0,0)" xlink:href="#aP"/><use transform="matrix(0.08493273051861802,0,0,0.08493273051861802,11.890582272606522,0)" xlink:href="#aO"/><use transform="matrix(0.08493273051861802,0,0,0.08493273051861802,28.877128376330127,0)" xlink:href="#aK"/><use transform="matrix(0.08493273051861802,0,0,0.08493273051861802,45.86367448005373,0)" xlink:href="#aY"/><use transform="matrix(0.08493273051861802,0,0,0.08493273051861802,64.46394246363107,0)" xlink:href="#aQ"/></g><g id="ae"><use transform="matrix(0.10329970216312213,0,0,0.10329970216312213,0,0)" xlink:href="#aK"/><use transform="matrix(0.10329970216312213,0,0,0.10329970216312213,20.659940432624428,0)" xlink:href="#aU"/><use transform="matrix(0.10329970216312213,0,0,0.10329970216312213,53.715845124823524,0)" xlink:href="#aC"/><use transform="matrix(0.10329970216312213,0,0,0.10329970216312213,76.33847989854726,0)" xlink:href="#aL"/><use transform="matrix(0.10329970216312213,0,0,0.10329970216312213,86.66845011485948,0)" xlink:href="#aH"/><use transform="matrix(0.10329970216312213,0,0,0.10329970216312213,96.9984203311717,0)" xlink:href="#aS"/><use transform="matrix(0.10329970216312213,0,0,0.10329970216312213,117.65836076379614,0)" xlink:href="#az"/><use transform="matrix(0.10329970216312213,0,0,0.10329970216312213,140.28099553751986,0)" xlink:href="#aN"/><use transform="matrix(0.10329970216312213,0,0,0.10329970216312213,162.9036303112436,0)" xlink:href="#aQ"/></g><g id="af"><use transform="matrix(0.10329970216312213,0,0,0.10329970216312213,0,0)" xlink:href="#aT"/><use transform="matrix(0.10329970216312213,0,0,0.10329970216312213,12.292664557411534,0)" xlink:href="#aH"/><use transform="matrix(0.10329970216312213,0,0,0.10329970216312213,22.622634773723746,0)" xlink:href="#aL"/><use transform="matrix(0.10329970216312213,0,0,0.10329970216312213,32.95260499003596,0)" xlink:href="#aB"/><use transform="matrix(0.10329970216312213,0,0,0.10329970216312213,45.24526954744749,0)" xlink:href="#aO"/><use transform="matrix(0.10329970216312213,0,0,0.10329970216312213,65.90520998007192,0)" xlink:href="#aP"/><use transform="matrix(0.10329970216312213,0,0,0.10329970216312213,80.36716828290902,0)" xlink:href="#aH"/><use transform="matrix(0.10329970216312213,0,0,0.10329970216312213,90.69713849922124,0)" xlink:href="#aN"/><use transform="matrix(0.10329970216312213,0,0,0.10329970216312213,113.31977327294499,0)" xlink:href="#aI"/></g><path d="M140-251c80 0 125 45 125 126 0 70-33 111-92 124 6 28 34 38 68 31l-1 36C177 83 129 55 120 2 51-6 15-50 15-125c0-81 44-126 125-126zm-1 214c52 0 73-35 73-88 0-50-21-86-72-86-52 0-73 35-73 86s22 88 72 88" id="bl"/><g id="ag"><use transform="matrix(0.08493273051861802,0,0,0.08493273051861802,0,0)" xlink:href="#bl"/><use transform="matrix(0.08493273051861802,0,0,0.08493273051861802,23.781164545213045,0)" xlink:href="#aA"/><use transform="matrix(0.08493273051861802,0,0,0.08493273051861802,42.38143252879039,0)" xlink:href="#aK"/><use transform="matrix(0.08493273051861802,0,0,0.08493273051861802,59.367978632513996,0)" xlink:href="#aL"/><use transform="matrix(0.08493273051861802,0,0,0.08493273051861802,67.8612516843758,0)" xlink:href="#aH"/><use transform="matrix(0.08493273051861802,0,0,0.08493273051861802,76.35452473623761,0)" xlink:href="#aB"/><use transform="matrix(0.08493273051861802,0,0,0.08493273051861802,86.46151966795316,0)" xlink:href="#aM"/></g><g id="ah"><use transform="matrix(0.08493273051861802,0,0,0.08493273051861802,0,0)" xlink:href="#aT"/><use transform="matrix(0.08493273051861802,0,0,0.08493273051861802,10.106994931715544,0)" xlink:href="#aH"/><use transform="matrix(0.08493273051861802,0,0,0.08493273051861802,18.600267983577346,0)" xlink:href="#aL"/><use transform="matrix(0.08493273051861802,0,0,0.08493273051861802,27.09354103543915,0)" xlink:href="#aB"/><use transform="matrix(0.08493273051861802,0,0,0.08493273051861802,37.20053596715469,0)" xlink:href="#aO"/><use transform="matrix(0.08493273051861802,0,0,0.08493273051861802,54.1870820708783,0)" xlink:href="#aP"/><use transform="matrix(0.08493273051861802,0,0,0.08493273051861802,66.07766434348483,0)" xlink:href="#aH"/><use transform="matrix(0.08493273051861802,0,0,0.08493273051861802,74.57093739534663,0)" xlink:href="#aN"/><use transform="matrix(0.08493273051861802,0,0,0.08493273051861802,93.17120537892399,0)" xlink:href="#aI"/><use transform="matrix(0.08493273051861802,0,0,0.08493273051861802,111.77147336250131,0)" xlink:href="#aD"/></g><g id="ai"><use transform="matrix(0.08493273051861802,0,0,0.08493273051861802,0,0)" xlink:href="#aR"/><use transform="matrix(0.08493273051861802,0,0,0.08493273051861802,16.986546103723605,0)" xlink:href="#aQ"/><use transform="matrix(0.08493273051861802,0,0,0.08493273051861802,33.97309220744721,0)" xlink:href="#aO"/><use transform="matrix(0.08493273051861802,0,0,0.08493273051861802,50.95963831117081,0)" xlink:href="#aK"/><use transform="matrix(0.08493273051861802,0,0,0.08493273051861802,67.94618441489442,0)" xlink:href="#aP"/><use transform="matrix(0.08493273051861802,0,0,0.08493273051861802,79.83676668750094,0)" xlink:href="#aS"/><use transform="matrix(0.08493273051861802,0,0,0.08493273051861802,96.82331279122454,0)" xlink:href="#aG"/></g><path d="M24-248c120-7 223 5 221 122C244-46 201 0 124 0H24v-248zM76-40c74 7 117-18 117-86 0-67-45-88-117-82v168" id="bm"/><g id="aj"><use transform="matrix(0.08493273051861802,0,0,0.08493273051861802,0,0)" xlink:href="#bm"/><use transform="matrix(0.08493273051861802,0,0,0.08493273051861802,21.997577204322067,0)" xlink:href="#aO"/><use transform="matrix(0.08493273051861802,0,0,0.08493273051861802,38.98412330804567,0)" xlink:href="#aP"/><use transform="matrix(0.08493273051861802,0,0,0.08493273051861802,50.87470558065218,0)" xlink:href="#aO"/><use transform="matrix(0.08493273051861802,0,0,0.08493273051861802,67.86125168437579,0)" xlink:href="#aC"/><use transform="matrix(0.08493273051861802,0,0,0.08493273051861802,86.46151966795313,0)" xlink:href="#aL"/><use transform="matrix(0.08493273051861802,0,0,0.08493273051861802,94.95479271981493,0)" xlink:href="#aH"/><use transform="matrix(0.08493273051861802,0,0,0.08493273051861802,103.44806577167672,0)" xlink:href="#aS"/><use transform="matrix(0.08493273051861802,0,0,0.08493273051861802,120.43461187540035,0)" xlink:href="#aK"/><use transform="matrix(0.08493273051861802,0,0,0.08493273051861802,137.42115797912396,0)" xlink:href="#aB"/><use transform="matrix(0.08493273051861802,0,0,0.08493273051861802,147.5281529108395,0)" xlink:href="#aH"/><use transform="matrix(0.08493273051861802,0,0,0.08493273051861802,156.0214259627013,0)" xlink:href="#az"/><use transform="matrix(0.08493273051861802,0,0,0.08493273051861802,174.62169394627864,0)" xlink:href="#aN"/><use transform="matrix(0.08493273051861802,0,0,0.08493273051861802,193.22196192985595,0)" xlink:href="#aD"/></g><g id="ak"><use transform="matrix(0.08493273051861802,0,0,0.08493273051861802,0,0)" xlink:href="#aR"/><use transform="matrix(0.08493273051861802,0,0,0.08493273051861802,16.986546103723605,0)" xlink:href="#aQ"/><use transform="matrix(0.08493273051861802,0,0,0.08493273051861802,33.97309220744721,0)" xlink:href="#aO"/><use transform="matrix(0.08493273051861802,0,0,0.08493273051861802,50.95963831117081,0)" xlink:href="#aK"/><use transform="matrix(0.08493273051861802,0,0,0.08493273051861802,67.94618441489442,0)" xlink:href="#aP"/><use transform="matrix(0.08493273051861802,0,0,0.08493273051861802,79.83676668750094,0)" xlink:href="#aS"/><use transform="matrix(0.08493273051861802,0,0,0.08493273051861802,96.82331279122454,0)" xlink:href="#aG"/></g><g id="al"><use transform="matrix(0.08493273051861802,0,0,0.08493273051861802,0,0)" xlink:href="#bm"/><use transform="matrix(0.08493273051861802,0,0,0.08493273051861802,21.997577204322067,0)" xlink:href="#aO"/><use transform="matrix(0.08493273051861802,0,0,0.08493273051861802,38.98412330804567,0)" xlink:href="#aN"/><use transform="matrix(0.08493273051861802,0,0,0.08493273051861802,57.58439129162302,0)" xlink:href="#az"/><use transform="matrix(0.08493273051861802,0,0,0.08493273051861802,76.18465927520036,0)" xlink:href="#aH"/><use transform="matrix(0.08493273051861802,0,0,0.08493273051861802,84.67793232706217,0)" xlink:href="#aQ"/><use transform="matrix(0.08493273051861802,0,0,0.08493273051861802,101.66447843078578,0)" xlink:href="#aH"/><use transform="matrix(0.08493273051861802,0,0,0.08493273051861802,110.15775148264757,0)" xlink:href="#aN"/><use transform="matrix(0.08493273051861802,0,0,0.08493273051861802,128.75801946622494,0)" xlink:href="#aI"/><use transform="matrix(0.08493273051861802,0,0,0.08493273051861802,147.35828744980228,0)" xlink:href="#aD"/></g><g id="am"><use transform="matrix(0.08493273051861802,0,0,0.08493273051861802,0,0)" xlink:href="#bj"/><use transform="matrix(0.08493273051861802,0,0,0.08493273051861802,20.383855324468325,0)" xlink:href="#aK"/><use transform="matrix(0.08493273051861802,0,0,0.08493273051861802,37.370401428191926,0)" xlink:href="#aH"/><use transform="matrix(0.08493273051861802,0,0,0.08493273051861802,45.86367448005373,0)" xlink:href="#aP"/></g><g id="an"><use transform="matrix(0.08493273051861802,0,0,0.08493273051861802,0,0)" xlink:href="#aU"/><use transform="matrix(0.08493273051861802,0,0,0.08493273051861802,27.17847376595777,0)" xlink:href="#aO"/><use transform="matrix(0.08493273051861802,0,0,0.08493273051861802,44.16501986968137,0)" xlink:href="#aP"/><use transform="matrix(0.08493273051861802,0,0,0.08493273051861802,56.055602142287896,0)" xlink:href="#aI"/><use transform="matrix(0.08493273051861802,0,0,0.08493273051861802,74.65587012586525,0)" xlink:href="#aH"/><use transform="matrix(0.08493273051861802,0,0,0.08493273051861802,83.14914317772705,0)" xlink:href="#aN"/><use transform="matrix(0.08493273051861802,0,0,0.08493273051861802,101.74941116130441,0)" xlink:href="#aI"/><use transform="matrix(0.08493273051861802,0,0,0.08493273051861802,120.34967914488176,0)" xlink:href="#aD"/></g><g id="ao"><use transform="matrix(0.08493273051861802,0,0,0.08493273051861802,0,0)" xlink:href="#aC"/><use transform="matrix(0.08493273051861802,0,0,0.08493273051861802,18.600267983577346,0)" xlink:href="#aO"/><use transform="matrix(0.08493273051861802,0,0,0.08493273051861802,35.58681408730095,0)" xlink:href="#aK"/><use transform="matrix(0.08493273051861802,0,0,0.08493273051861802,52.573360191024555,0)" xlink:href="#aP"/></g><g id="ap"><use transform="matrix(0.10329970216312213,0,0,0.10329970216312213,0,0)" xlink:href="#aP"/><use transform="matrix(0.10329970216312213,0,0,0.10329970216312213,14.461958302837099,0)" xlink:href="#aO"/><use transform="matrix(0.10329970216312213,0,0,0.10329970216312213,35.12189873546153,0)" xlink:href="#aC"/><use transform="matrix(0.10329970216312213,0,0,0.10329970216312213,57.744533509185274,0)" xlink:href="#az"/><use transform="matrix(0.10329970216312213,0,0,0.10329970216312213,80.36716828290902,0)" xlink:href="#aP"/><use transform="matrix(0.10329970216312213,0,0,0.10329970216312213,94.82912658574612,0)" xlink:href="#aB"/><use transform="matrix(0.10329970216312213,0,0,0.10329970216312213,107.12179114315765,0)" xlink:href="#aH"/><use transform="matrix(0.10329970216312213,0,0,0.10329970216312213,117.45176135946987,0)" xlink:href="#aN"/><use transform="matrix(0.10329970216312213,0,0,0.10329970216312213,140.0743961331936,0)" xlink:href="#aI"/></g><path d="M169-182c-1-43-94-46-97-3 18 66 151 10 154 114 3 95-165 93-204 36-6-8-10-19-12-30l50-8c3 46 112 56 116 5-17-69-150-10-154-114-4-87 153-88 188-35 5 8 8 18 10 28" id="bn"/><g id="aq"><use transform="matrix(0.08493273051861802,0,0,0.08493273051861802,0,0)" xlink:href="#bn"/><use transform="matrix(0.08493273051861802,0,0,0.08493273051861802,20.383855324468325,0)" xlink:href="#aO"/><use transform="matrix(0.08493273051861802,0,0,0.08493273051861802,37.370401428191926,0)" xlink:href="#aK"/><use transform="matrix(0.08493273051861802,0,0,0.08493273051861802,54.35694753191554,0)" xlink:href="#aP"/><use transform="matrix(0.08493273051861802,0,0,0.08493273051861802,66.24752980452206,0)" xlink:href="#aS"/><use transform="matrix(0.08493273051861802,0,0,0.08493273051861802,83.23407590824567,0)" xlink:href="#aG"/></g><g id="ar"><use transform="matrix(0.08493273051861802,0,0,0.08493273051861802,0,0)" xlink:href="#aO"/><use transform="matrix(0.08493273051861802,0,0,0.08493273051861802,16.986546103723605,0)" xlink:href="#bi"/><use transform="matrix(0.08493273051861802,0,0,0.08493273051861802,33.97309220744721,0)" xlink:href="#aK"/><use transform="matrix(0.08493273051861802,0,0,0.08493273051861802,50.95963831117081,0)" xlink:href="#aS"/><use transform="matrix(0.08493273051861802,0,0,0.08493273051861802,67.94618441489442,0)" xlink:href="#aB"/><use transform="matrix(0.08493273051861802,0,0,0.08493273051861802,78.05317934660997,0)" xlink:href="#aD"/></g><g id="as"><use transform="matrix(0.08493273051861802,0,0,0.08493273051861802,0,0)" xlink:href="#bk"/><use transform="matrix(0.08493273051861802,0,0,0.08493273051861802,21.997577204322067,0)" xlink:href="#aP"/><use transform="matrix(0.08493273051861802,0,0,0.08493273051861802,33.88815947692859,0)" xlink:href="#aO"/><use transform="matrix(0.08493273051861802,0,0,0.08493273051861802,50.8747055806522,0)" xlink:href="#aK"/><use transform="matrix(0.08493273051861802,0,0,0.08493273051861802,67.8612516843758,0)" xlink:href="#aB"/><use transform="matrix(0.08493273051861802,0,0,0.08493273051861802,77.96824661609135,0)" xlink:href="#aO"/></g><g id="at"><use transform="matrix(0.08493273051861802,0,0,0.08493273051861802,0,0)" xlink:href="#aP"/><use transform="matrix(0.08493273051861802,0,0,0.08493273051861802,11.890582272606522,0)" xlink:href="#aO"/><use transform="matrix(0.08493273051861802,0,0,0.08493273051861802,28.877128376330127,0)" xlink:href="#aC"/><use transform="matrix(0.08493273051861802,0,0,0.08493273051861802,47.47739635990747,0)" xlink:href="#az"/><use transform="matrix(0.08493273051861802,0,0,0.08493273051861802,66.07766434348483,0)" xlink:href="#aP"/><use transform="matrix(0.08493273051861802,0,0,0.08493273051861802,77.96824661609135,0)" xlink:href="#aB"/><use transform="matrix(0.08493273051861802,0,0,0.08493273051861802,88.07524154780688,0)" xlink:href="#aD"/></g><g id="au"><use transform="matrix(0.08493273051861802,0,0,0.08493273051861802,0,0)" xlink:href="#aC"/><use transform="matrix(0.08493273051861802,0,0,0.08493273051861802,18.600267983577346,0)" xlink:href="#aM"/><use transform="matrix(0.08493273051861802,0,0,0.08493273051861802,35.58681408730095,0)" xlink:href="#aB"/><use transform="matrix(0.08493273051861802,0,0,0.08493273051861802,45.6938090190165,0)" xlink:href="#aG"/><use transform="matrix(0.08493273051861802,0,0,0.08493273051861802,64.29407700259384,0)" xlink:href="#az"/><use transform="matrix(0.08493273051861802,0,0,0.08493273051861802,82.89434498617118,0)" xlink:href="#aN"/></g><g id="av"><use transform="matrix(0.08493273051861802,0,0,0.08493273051861802,0,0)" xlink:href="#aQ"/><use transform="matrix(0.08493273051861802,0,0,0.08493273051861802,16.986546103723605,0)" xlink:href="#aS"/><use transform="matrix(0.08493273051861802,0,0,0.08493273051861802,33.97309220744721,0)" xlink:href="#aP"/><use transform="matrix(0.08493273051861802,0,0,0.08493273051861802,45.86367448005373,0)" xlink:href="#aH"/><use transform="matrix(0.08493273051861802,0,0,0.08493273051861802,54.35694753191554,0)" xlink:href="#aC"/><use transform="matrix(0.08493273051861802,0,0,0.08493273051861802,72.95721551549289,0)" xlink:href="#aB"/><use transform="matrix(0.08493273051861802,0,0,0.08493273051861802,83.06421044720844,0)" xlink:href="#aQ"/></g><g id="aw"><use transform="matrix(0.08493273051861802,0,0,0.08493273051861802,0,0)" xlink:href="#bk"/><use transform="matrix(0.08493273051861802,0,0,0.08493273051861802,21.997577204322067,0)" xlink:href="#az"/><use transform="matrix(0.08493273051861802,0,0,0.08493273051861802,40.59784518789941,0)" xlink:href="#aU"/><use transform="matrix(0.08493273051861802,0,0,0.08493273051861802,67.77631895385719,0)" xlink:href="#bb"/><use transform="matrix(0.08493273051861802,0,0,0.08493273051861802,86.37658693743452,0)" xlink:href="#aH"/><use transform="matrix(0.08493273051861802,0,0,0.08493273051861802,94.86985998929633,0)" xlink:href="#aN"/><use transform="matrix(0.08493273051861802,0,0,0.08493273051861802,113.47012797287368,0)" xlink:href="#aO"/></g><g id="ax"><use transform="matrix(0.08493273051861802,0,0,0.08493273051861802,0,0)" xlink:href="#aP"/><use transform="matrix(0.08493273051861802,0,0,0.08493273051861802,11.890582272606522,0)" xlink:href="#aO"/><use transform="matrix(0.08493273051861802,0,0,0.08493273051861802,28.877128376330127,0)" xlink:href="#aC"/><use transform="matrix(0.08493273051861802,0,0,0.08493273051861802,47.47739635990747,0)" xlink:href="#az"/><use transform="matrix(0.08493273051861802,0,0,0.08493273051861802,66.07766434348483,0)" xlink:href="#aP"/><use transform="matrix(0.08493273051861802,0,0,0.08493273051861802,77.96824661609135,0)" xlink:href="#aB"/><use transform="matrix(0.08493273051861802,0,0,0.08493273051861802,88.07524154780688,0)" xlink:href="#aQ"/><use transform="matrix(0.08493273051861802,0,0,0.08493273051861802,105.0617876515305,0)" xlink:href="#aD"/></g><g id="ay"><use transform="matrix(0.08493273051861802,0,0,0.08493273051861802,0,0)" xlink:href="#aQ"/><use transform="matrix(0.08493273051861802,0,0,0.08493273051861802,16.986546103723605,0)" xlink:href="#aS"/><use transform="matrix(0.08493273051861802,0,0,0.08493273051861802,33.97309220744721,0)" xlink:href="#aP"/><use transform="matrix(0.08493273051861802,0,0,0.08493273051861802,45.86367448005373,0)" xlink:href="#aH"/><use transform="matrix(0.08493273051861802,0,0,0.08493273051861802,54.35694753191554,0)" xlink:href="#aC"/><use transform="matrix(0.08493273051861802,0,0,0.08493273051861802,72.95721551549289,0)" xlink:href="#aB"/></g></defs></g></svg>